<svg width="27" height="26" viewBox="0 0 27 26" fill="none" xmlns="http://www.w3.org/2000/svg">
<g clip-path="url(#clip0_116_948)">
<path d="M18.149 0H3.8105C3.0588 0 2.33788 0.286869 1.80635 0.797499C1.27481 1.30813 0.976198 2.00069 0.976198 2.72283V20.3619C0.97576 20.7199 1.04872 21.0745 1.19092 21.4054C1.33312 21.7363 1.54177 22.037 1.80496 22.2904C2.06815 22.5439 2.38073 22.745 2.72484 22.8824C3.06895 23.0198 3.43786 23.0907 3.8105 23.0912H11.155C10.8284 22.4893 10.5784 21.8518 10.4105 21.1925H3.99746C3.73184 21.1925 3.47709 21.0912 3.28927 20.9107C3.10145 20.7303 2.99593 20.4856 2.99593 20.2304C2.99593 19.9752 3.10145 19.7305 3.28927 19.5501C3.47709 19.3697 3.73184 19.2683 3.99746 19.2683H10.1635C10.1635 19.2394 10.1635 19.2106 10.1635 19.1817C10.1616 17.9035 10.4599 16.6414 11.036 15.4893C11.6122 14.3372 12.4514 13.3248 13.4913 12.5274C14.5311 11.7301 15.7448 11.1683 17.0419 10.8839C18.3391 10.5995 19.6863 10.5999 20.9833 10.8849V2.72283C20.9833 2.00069 20.6847 1.30813 20.1531 0.797499C19.6216 0.286869 18.9007 0 18.149 0Z" fill="#213245"/>
<path d="M19.0837 12.6167C17.7054 12.6161 16.3579 13.0082 15.2116 13.7434C14.0654 14.4786 13.1718 15.5239 12.6441 16.7471C12.1163 17.9702 11.9781 19.3163 12.2468 20.6149C12.5155 21.9136 13.1792 23.1065 14.1538 24.0428C15.1284 24.979 16.3701 25.6165 17.7219 25.8747C19.0738 26.1329 20.4749 26 21.7481 25.4931C23.0214 24.9861 24.1095 24.1277 24.8748 23.0265C25.6401 21.9253 26.0483 20.6308 26.0476 19.3067C26.0476 17.5324 25.3139 15.8308 24.0079 14.5762C22.7019 13.3215 20.9306 12.6167 19.0837 12.6167ZM22.1984 20.3138H20.0852V22.4593C20.0852 22.7145 19.9797 22.9592 19.7919 23.1396C19.6041 23.3201 19.3493 23.4214 19.0837 23.4214C18.8181 23.4214 18.5633 23.3201 18.3755 23.1396C18.1877 22.9592 18.0822 22.7145 18.0822 22.4593V20.3266H15.9656C15.7 20.3266 15.4453 20.2252 15.2574 20.0448C15.0696 19.8643 14.9641 19.6196 14.9641 19.3644C14.9641 19.1093 15.0696 18.8646 15.2574 18.6841C15.4453 18.5037 15.7 18.4023 15.9656 18.4023H18.0822V16.26C18.0822 16.0048 18.1877 15.7601 18.3755 15.5796C18.5633 15.3992 18.8181 15.2978 19.0837 15.2978C19.3493 15.2978 19.6041 15.3992 19.7919 15.5796C19.9797 15.7601 20.0852 16.0048 20.0852 16.26V18.4023H22.1984C22.464 18.4023 22.7188 18.5037 22.9066 18.6841C23.0944 18.8646 23.1999 19.1093 23.1999 19.3644C23.1999 19.6196 23.0944 19.8643 22.9066 20.0448C22.7188 20.2252 22.464 20.3266 22.1984 20.3266V20.3138Z" fill="#213245"/>
</g>
<defs>
<clipPath id="clip0_116_948">
<rect width="25.0714" height="26" fill="white" transform="translate(0.976196)"/>
</clipPath>
</defs>
</svg>
