<svg width="26" height="26" viewBox="0 0 26 26" fill="none" xmlns="http://www.w3.org/2000/svg">
<g clip-path="url(#clip0_310_9)">
<path d="M7.35887 7.35967e-08H0.663858C0.487792 7.35967e-08 0.318937 0.0698529 0.19444 0.194192C0.069942 0.31853 0 0.48717 0 0.663012L0 21.2628C0 21.4386 0.069942 21.6073 0.19444 21.7316C0.318937 21.8559 0.487792 21.9258 0.663858 21.9258H7.35887C7.44513 21.9258 7.53053 21.9086 7.60998 21.875C7.68943 21.8415 7.76133 21.7923 7.82139 21.7305C7.88145 21.6686 7.92846 21.5953 7.95963 21.515C7.99079 21.4347 8.00548 21.3489 8.00281 21.2628V0.663012C8.00548 0.576897 7.99079 0.491125 7.95963 0.410787C7.92846 0.33045 7.88145 0.257185 7.82139 0.195343C7.76133 0.133501 7.68943 0.0843423 7.60998 0.0507858C7.53053 0.0172292 7.44513 -4.1142e-05 7.35887 7.35967e-08ZM1.48704 3.01007H6.46598C6.53619 3.00196 6.60732 3.00877 6.67471 3.03006C6.7421 3.05135 6.80422 3.08663 6.85699 3.13359C6.90977 3.18055 6.952 3.23813 6.98091 3.30254C7.00983 3.36695 7.02478 3.43674 7.02478 3.50733C7.02478 3.57792 7.00983 3.64771 6.98091 3.71212C6.952 3.77654 6.90977 3.83411 6.85699 3.88107C6.80422 3.92803 6.7421 3.96331 6.67471 3.9846C6.60732 4.00589 6.53619 4.0127 6.46598 4.00459H1.48704C1.3649 3.99048 1.25221 3.93202 1.17041 3.84034C1.08861 3.74865 1.04342 3.63013 1.04342 3.50733C1.04342 3.38453 1.08861 3.26601 1.17041 3.17433C1.25221 3.08264 1.3649 3.02418 1.48704 3.01007ZM1.48704 15.9388H6.46598C6.53619 15.9307 6.60732 15.9375 6.67471 15.9588C6.7421 15.9801 6.80422 16.0154 6.85699 16.0623C6.90977 16.1093 6.952 16.1669 6.98091 16.2313C7.00983 16.2957 7.02478 16.3655 7.02478 16.4361C7.02478 16.5066 7.00983 16.5764 6.98091 16.6409C6.952 16.7053 6.90977 16.7628 6.85699 16.8098C6.80422 16.8568 6.7421 16.892 6.67471 16.9133C6.60732 16.9346 6.53619 16.9414 6.46598 16.9333H1.48704C1.3649 16.9192 1.25221 16.8607 1.17041 16.7691C1.08861 16.6774 1.04342 16.5589 1.04342 16.4361C1.04342 16.3133 1.08861 16.1947 1.17041 16.1031C1.25221 16.0114 1.3649 15.9529 1.48704 15.9388ZM6.49585 18.9489H1.51692C1.4467 18.957 1.37557 18.9502 1.30818 18.9289C1.24079 18.9076 1.17867 18.8723 1.1259 18.8254C1.07313 18.7784 1.0309 18.7208 1.00198 18.6564C0.973064 18.592 0.958115 18.5222 0.958115 18.4516C0.958115 18.381 0.973064 18.3112 1.00198 18.2468C1.0309 18.1824 1.07313 18.1248 1.1259 18.0779C1.17867 18.0309 1.24079 17.9956 1.30818 17.9743C1.37557 17.9531 1.4467 17.9462 1.51692 17.9544H6.49585C6.61799 17.9685 6.73068 18.0269 6.81248 18.1186C6.89428 18.2103 6.93948 18.3288 6.93948 18.4516C6.93948 18.5744 6.89428 18.6929 6.81248 18.7846C6.73068 18.8763 6.61799 18.9348 6.49585 18.9489Z" fill="#213245"/>
<path d="M15.9326 10.4424V0.692823C15.9326 0.331482 15.7102 0.0463867 15.4413 0.0463867H10.4193C10.1537 0.0463867 9.93464 0.338112 9.93464 0.692823V17.1886C10.3055 15.6598 11.0463 14.2453 12.092 13.0692C13.1378 11.893 14.4565 10.991 15.9326 10.4424ZM11.0499 3.05977H14.7808C14.9866 3.05977 15.1526 3.28188 15.1526 3.55703C15.1526 3.83218 14.9866 4.05761 14.7808 4.05761H11.0499C10.8441 4.05761 10.6748 3.83218 10.6748 3.55703C10.6748 3.28188 10.8441 3.05977 11.0499 3.05977Z" fill="#213245"/>
<path d="M19.2784 9.8424C20.1652 9.84275 21.0476 9.96546 21.9007 10.2071V3.64656C21.9007 3.29185 21.7579 3.00012 21.5687 3.00012H18.2561C18.0769 3.00012 17.9242 3.29185 17.9242 3.64656V9.94517C18.3726 9.8789 18.8251 9.84456 19.2784 9.8424ZM18.6644 6.02345H21.1406C21.2766 6.02345 21.3895 6.24556 21.3895 6.52071C21.3895 6.79586 21.2766 7.02129 21.1406 7.02129H18.6644C18.5283 7.02129 18.4154 6.79586 18.4154 6.52071C18.4154 6.24556 18.5283 6.02345 18.6644 6.02345Z" fill="#213245"/>
<path d="M18.92 11.8745C17.5208 11.8739 16.1529 12.2876 14.9893 13.0635C13.8256 13.8393 12.9185 14.9424 12.3826 16.2332C11.8467 17.524 11.7062 18.9445 11.9787 20.3151C12.2513 21.6856 12.9247 22.9447 13.9138 23.933C14.9029 24.9213 16.1633 25.5945 17.5355 25.8673C18.9077 26.1402 20.3301 26.0005 21.6227 25.4659C22.9154 24.9313 24.0203 24.0258 24.7977 22.864C25.5751 21.7022 25.99 20.3362 25.99 18.9389C25.99 17.0659 25.2453 15.2695 23.9195 13.9448C22.5937 12.6201 20.7954 11.8754 18.92 11.8745ZM22.7504 17.8184L19.2685 21.2959L18.8204 21.7468C18.5963 21.9704 18.2924 22.0961 17.9756 22.0961C17.6588 22.0961 17.3549 21.9704 17.1309 21.7468L15.1061 19.7378C14.9948 19.6272 14.9065 19.4958 14.8462 19.351C14.7859 19.2062 14.7549 19.0509 14.7549 18.8941C14.7549 18.7373 14.7859 18.5821 14.8462 18.4373C14.9065 18.2925 14.9948 18.1611 15.1061 18.0505C15.3302 17.8268 15.634 17.7011 15.9508 17.7011C16.2677 17.7011 16.5715 17.8268 16.7956 18.0505L17.9706 19.2273L21.0576 16.1443C21.1684 16.0327 21.3002 15.944 21.4455 15.8835C21.5908 15.8231 21.7466 15.7919 21.904 15.7919C22.0614 15.7919 22.2172 15.8231 22.3625 15.8835C22.5078 15.944 22.6396 16.0327 22.7504 16.1443C22.9704 16.3675 23.0936 16.6682 23.0936 16.9814C23.0936 17.2945 22.9704 17.5952 22.7504 17.8184Z" fill="#213245"/>
</g>
<defs>
<clipPath id="clip0_310_9">
<rect width="26" height="26" fill="white"/>
</clipPath>
</defs>
</svg>
