<svg width="26" height="26" viewBox="0 0 26 26" fill="none" xmlns="http://www.w3.org/2000/svg">
<g clip-path="url(#clip0_116_937)">
<path d="M7.43426 0H3.40482C3.07699 -1.39267e-06 2.76254 0.129927 2.53039 0.361302C2.29824 0.592678 2.16734 0.906622 2.16638 1.23431V18.327C2.16734 18.6547 2.29824 18.9687 2.53039 19.2001C2.76254 19.4314 3.07699 19.5614 3.40482 19.5614H7.43426C7.76113 19.5604 8.07429 19.4299 8.30508 19.1986C8.53588 18.9672 8.66548 18.6538 8.66548 18.327V1.23431C8.66548 0.907578 8.53588 0.594171 8.30508 0.362796C8.07429 0.13142 7.76113 0.000955369 7.43426 0ZM7.0732 16.241H3.78755C3.64391 16.241 3.50615 16.1839 3.40458 16.0824C3.30301 15.9809 3.24595 15.8432 3.24595 15.6996C3.24595 15.556 3.30301 15.4183 3.40458 15.3168C3.50615 15.2153 3.64391 15.1582 3.78755 15.1582H7.0732C7.21684 15.1582 7.35459 15.2153 7.45616 15.3168C7.55773 15.4183 7.61479 15.556 7.61479 15.6996C7.61479 15.8432 7.55773 15.9809 7.45616 16.0824C7.35459 16.1839 7.21684 16.241 7.0732 16.241ZM7.0732 14.0755H3.78755C3.64391 14.0755 3.50615 14.0185 3.40458 13.917C3.30301 13.8154 3.24595 13.6777 3.24595 13.5341C3.24595 13.3906 3.30301 13.2529 3.40458 13.1513C3.50615 13.0498 3.64391 12.9928 3.78755 12.9928H7.0732C7.21684 12.9928 7.35459 13.0498 7.45616 13.1513C7.55773 13.2529 7.61479 13.3906 7.61479 13.5341C7.61479 13.6777 7.55773 13.8154 7.45616 13.917C7.35459 14.0185 7.21684 14.0755 7.0732 14.0755ZM7.0732 4.30566H3.78755C3.64391 4.30566 3.50615 4.24863 3.40458 4.1471C3.30301 4.04558 3.24595 3.90788 3.24595 3.7643C3.24595 3.62072 3.30301 3.48302 3.40458 3.38149C3.50615 3.27997 3.64391 3.22293 3.78755 3.22293H7.0732C7.21684 3.22293 7.35459 3.27997 7.45616 3.38149C7.55773 3.48302 7.61479 3.62072 7.61479 3.7643C7.61479 3.90788 7.55773 4.04558 7.45616 4.1471C7.35459 4.24863 7.21684 4.30566 7.0732 4.30566Z" fill="#213245"/>
<path d="M16.1142 -3.76372e-05H12.0811C11.9177 -0.00194775 11.7556 0.0285685 11.6041 0.0897428C11.4526 0.150917 11.3148 0.241533 11.1986 0.356341C11.0824 0.471148 10.9902 0.607864 10.9272 0.758566C10.8642 0.909269 10.8318 1.07096 10.8318 1.23428V18.327C10.8318 18.6544 10.9619 18.9683 11.1935 19.1998C11.4251 19.4313 11.7392 19.5613 12.0667 19.5613H16.1142C16.4417 19.5613 16.7558 19.4313 16.9873 19.1998C17.2189 18.9683 17.349 18.6544 17.349 18.327V1.23428C17.349 0.906916 17.2189 0.592963 16.9873 0.361485C16.7558 0.130006 16.4417 -3.76372e-05 16.1142 -3.76372e-05ZM15.7531 16.2409H12.4675C12.3238 16.2409 12.1861 16.1839 12.0845 16.0824C11.9829 15.9808 11.9259 15.8432 11.9259 15.6996C11.9259 15.556 11.9829 15.4183 12.0845 15.3168C12.1861 15.2152 12.3238 15.1582 12.4675 15.1582H15.7531C15.8967 15.1582 16.0345 15.2152 16.1361 15.3168C16.2376 15.4183 16.2947 15.556 16.2947 15.6996C16.2947 15.8432 16.2376 15.9808 16.1361 16.0824C16.0345 16.1839 15.8967 16.2409 15.7531 16.2409ZM15.7531 14.0755H12.4675C12.3238 14.0755 12.1861 14.0184 12.0845 13.9169C11.9829 13.8154 11.9259 13.6777 11.9259 13.5341C11.9259 13.3905 11.9829 13.2528 12.0845 13.1513C12.1861 13.0498 12.3238 12.9927 12.4675 12.9927H15.7531C15.8967 12.9927 16.0345 13.0498 16.1361 13.1513C16.2376 13.2528 16.2947 13.3905 16.2947 13.5341C16.2947 13.6777 16.2376 13.8154 16.1361 13.9169C16.0345 14.0184 15.8967 14.0755 15.7531 14.0755ZM15.7531 4.30563H12.4675C12.3238 4.30563 12.1861 4.24859 12.0845 4.14706C11.9829 4.04554 11.9259 3.90784 11.9259 3.76426C11.9259 3.62068 11.9829 3.48298 12.0845 3.38146C12.1861 3.27993 12.3238 3.22289 12.4675 3.22289H15.7531C15.8967 3.22289 16.0345 3.27993 16.1361 3.38146C16.2376 3.48298 16.2947 3.62068 16.2947 3.76426C16.2947 3.90784 16.2376 4.04554 16.1361 4.14706C16.0345 4.24859 15.8967 4.30563 15.7531 4.30563Z" fill="#213245"/>
<path fill-rule="evenodd" clip-rule="evenodd" d="M20.6816 3.2373H22.6566C23.3087 3.2373 23.8373 3.76569 23.8373 4.41748V18.3342C23.8373 18.986 23.3087 19.5144 22.6566 19.5144H20.6816C20.0295 19.5144 19.5009 18.986 19.5009 18.3342V4.41748C19.5009 3.76569 20.0295 3.2373 20.6816 3.2373ZM21.1076 6.50714H22.2161C22.5112 6.50714 22.7505 6.74629 22.7505 7.04129V7.0449C22.7505 7.3399 22.5112 7.57905 22.2161 7.57905H21.1076C20.8125 7.57905 20.5733 7.3399 20.5733 7.0449V7.04129C20.5733 6.74629 20.8125 6.50714 21.1076 6.50714ZM22.2233 13.0035H21.1149C20.8197 13.0035 20.5805 13.2427 20.5805 13.5377V13.5413C20.5805 13.8363 20.8197 14.0754 21.1149 14.0754H22.2233C22.5184 14.0754 22.7577 13.8363 22.7577 13.5413V13.5377C22.7577 13.2427 22.5184 13.0035 22.2233 13.0035ZM21.1076 15.1582H22.2161C22.5112 15.1582 22.7505 15.3973 22.7505 15.6924V15.696C22.7505 15.991 22.5112 16.2301 22.2161 16.2301H21.1076C20.8125 16.2301 20.5733 15.991 20.5733 15.696V15.6924C20.5733 15.3973 20.8125 15.1582 21.1076 15.1582Z" fill="#213245"/>
<path d="M24.9132 21.6727H1.08318C0.795905 21.6727 0.520393 21.7868 0.317257 21.9899C0.114121 22.1929 0 22.4683 0 22.7555C0 23.0426 0.114121 23.318 0.317257 23.5211C0.520393 23.7241 0.795905 23.8382 1.08318 23.8382H4.33273V24.9209C4.33513 25.2081 4.45154 25.4825 4.65637 25.6839C4.75779 25.7836 4.87787 25.8624 5.00974 25.9157C5.14161 25.969 5.2827 25.9958 5.42494 25.9946C5.56719 25.9935 5.70781 25.9643 5.83877 25.9088C5.96973 25.8533 6.08848 25.7725 6.18822 25.6711C6.28797 25.5697 6.36676 25.4497 6.4201 25.3179C6.47344 25.1861 6.50028 25.0451 6.4991 24.9029V23.8201H19.4973V24.9029C19.4973 25.1934 19.6127 25.472 19.8182 25.6774C20.0238 25.8828 20.3025 25.9982 20.5931 25.9982C20.8837 25.9982 21.1625 25.8828 21.368 25.6774C21.5735 25.472 21.6889 25.1934 21.6889 24.9029V23.8201H24.9132C25.2005 23.8201 25.476 23.7061 25.6791 23.503C25.8823 23.3 25.9964 23.0246 25.9964 22.7374C25.9917 22.4534 25.8754 22.1826 25.6728 21.9834C25.4702 21.7843 25.1974 21.6727 24.9132 21.6727Z" fill="#213245"/>
</g>
<defs>
<clipPath id="clip0_116_937">
<rect width="26" height="26" fill="white"/>
</clipPath>
</defs>
</svg>
