<svg width="24" height="24" viewBox="0 0 31 26" fill="none" xmlns="http://www.w3.org/2000/svg">
<path d="M6.5914 11.7L23.7993 11.7C25.6282 11.7 27.2242 12.9405 27.6755 14.7129L29.2799 21.0129C29.9239 23.5417 28.0132 26 25.4037 26L5.07614 26C2.48861 26 0.58196 23.5804 1.18705 21.0646L2.70231 14.7646C3.13466 12.9671 4.74258 11.7 6.5914 11.7Z" fill="#92B4F3"/>
<path d="M6.65357 5.20001L23.7345 5.20001C25.5933 5.20001 27.2072 6.48053 27.6298 8.29069L29.4039 15.8907C29.9897 18.3997 28.0852 20.8 25.5087 20.8L4.97796 20.8C2.4217 20.8 0.521404 18.4351 1.07178 15.9388L2.74738 8.3388C3.15157 6.50553 4.77628 5.20001 6.65357 5.20001Z" fill="#5C8FEB"/>
<path d="M6.62365 -1.04585e-06L23.7657 -2.96552e-07C25.6102 -2.15927e-07 27.2155 1.26123 27.652 3.05331L29.345 10.0033C29.9585 12.522 28.051 14.95 25.4586 14.95L5.02473 14.95C2.4535 14.95 0.550085 12.5589 1.12657 10.0532L2.72548 3.10318C3.14332 1.287 4.76002 -1.12732e-06 6.62365 -1.04585e-06Z" fill="#2769E4"/>
</svg>
