<svg width="63" height="72" viewBox="0 0 63 72" fill="none" xmlns="http://www.w3.org/2000/svg">
<g clip-path="url(#clip0_319_2)">
<path d="M31.5002 0C29.0111 0 27.0002 2.01094 27.0002 4.5V7.2C16.7345 9.28125 9.00015 18.3656 9.00015 29.25V32.8219C9.00015 39.2062 6.82046 45.4078 2.84078 50.3859L0.745464 53.0156C-0.0701611 54.0281 -0.224849 55.4203 0.337651 56.5875C0.900151 57.7547 2.0814 58.5 3.37515 58.5H59.6252C60.9189 58.5 62.1002 57.7547 62.6627 56.5875C63.2252 55.4203 63.0705 54.0281 62.2548 53.0156L60.1595 50.4C56.1798 45.4078 54.0002 39.2062 54.0002 32.8219V29.25C54.0002 18.3656 46.2658 9.28125 36.0002 7.2V4.5C36.0002 2.01094 33.9892 0 31.5002 0ZM31.5002 13.5C40.2048 13.5 47.2502 20.5453 47.2502 29.25V32.8219C47.2502 39.5578 49.2048 46.125 52.833 51.75H10.1673C13.7955 46.125 15.7502 39.5578 15.7502 32.8219V29.25C15.7502 20.5453 22.7955 13.5 31.5002 13.5ZM40.5002 63H31.5002H22.5002C22.5002 65.3906 23.4423 67.6828 25.1298 69.3703C26.8173 71.0578 29.1095 72 31.5002 72C33.8908 72 36.183 71.0578 37.8705 69.3703C39.558 67.6828 40.5002 65.3906 40.5002 63Z" fill="#213245"/>
</g>
<defs>
<clipPath id="clip0_319_2">
<rect width="63" height="72" fill="white"/>
</clipPath>
</defs>
</svg>
