<svg width="74" height="83" viewBox="0 0 74 83" fill="none" xmlns="http://www.w3.org/2000/svg">
<path d="M67 55.5001H7C9.14628 50.9982 9.82476 48.2782 10 43.0001V38.9954C10 31.4305 11.3212 23.6943 15.7131 17.5348C21.1533 9.905 27.2448 6.82188 37 7.00007C46.0845 7.16602 53.0849 10.1034 57.9589 16.8371C62.5641 23.1996 63 31.4914 63 39.3456V43.0001C63.1935 48.2567 63.9906 51.0451 67 55.5001Z" fill="#213245"/>
<rect x="30" y="7" width="14" height="7" fill="#213245"/>
<circle cx="37" cy="7" r="7" fill="#213245"/>
<path fill-rule="evenodd" clip-rule="evenodd" d="M3.5 62C1.56701 62 0 63.567 0 65.5C0 67.433 1.56701 69 3.5 69H27.8321C27.2969 70.2249 27 71.5778 27 73C27 78.5228 31.4771 83 37 83C42.5229 83 47 78.5228 47 73C47 71.5778 46.7031 70.2249 46.1679 69H70.5C72.433 69 74 67.433 74 65.5C74 63.567 72.433 62 70.5 62H3.5Z" fill="#213245"/>
</svg>
