<svg width="29" height="26" viewBox="0 0 29 26" fill="none" xmlns="http://www.w3.org/2000/svg">
<g clip-path="url(#clip0_116_955)">
<path d="M15.0224 20.3914C14.5351 19.7779 11.7409 17.0123 3.00449 18.8695C3.00138 18.8706 2.99804 18.8709 2.99477 18.8704C2.9915 18.8699 2.98841 18.8686 2.98576 18.8666C2.98312 18.8646 2.981 18.862 2.97961 18.859C2.97822 18.856 2.97759 18.8527 2.97778 18.8494V2.6245C2.9763 2.62136 2.97553 2.61792 2.97553 2.61445C2.97553 2.61097 2.9763 2.60753 2.97778 2.60439C6.20845 1.56456 9.68196 1.56456 12.9126 2.60439C12.9152 2.61084 12.9152 2.61805 12.9126 2.6245V8.89655C12.9127 8.91905 12.9194 8.94103 12.9318 8.95973C12.9443 8.97842 12.962 8.99298 12.9827 9.00159C13.0034 9.01019 13.0262 9.01245 13.0482 9.00807C13.0702 9.0037 13.0904 8.99289 13.1063 8.97701C13.5347 8.55901 14.0935 8.3021 14.6886 8.24957C14.7603 8.24208 14.8267 8.20808 14.8748 8.15417C14.923 8.10027 14.9494 8.03032 14.949 7.95792V2.6245C14.9472 2.62145 14.9463 2.61798 14.9463 2.61445C14.9463 2.61092 14.9472 2.60745 14.949 2.60439C18.2075 1.56762 21.7055 1.56762 24.964 2.60439C24.9666 2.61084 24.9666 2.61805 24.964 2.6245V12.2354C24.9638 12.2532 24.9682 12.2708 24.9767 12.2865C24.9853 12.3022 24.9977 12.3153 25.0128 12.3248C25.0279 12.3342 25.0451 12.3396 25.0629 12.3404C25.0807 12.3411 25.0983 12.3373 25.1142 12.3292C25.5647 12.1111 26.0452 11.9619 26.5397 11.8868C26.9341 11.8269 27.3343 11.8157 27.7314 11.8532C27.7461 11.8547 27.761 11.8529 27.7749 11.8482C27.7889 11.8434 27.8017 11.8356 27.8125 11.8255C27.8232 11.8153 27.8317 11.803 27.8373 11.7892C27.8429 11.7755 27.8455 11.7608 27.8449 11.746V4.61238C27.8458 4.3097 27.755 4.0139 27.5846 3.76427C27.4137 3.51136 27.1948 3.29489 26.9403 3.12734C26.9385 3.1219 26.9385 3.11602 26.9403 3.11058V1.95741C26.9405 1.75663 26.8787 1.56072 26.7633 1.39677C26.6478 1.23282 26.4846 1.10894 26.296 1.04224C22.6382 -0.284764 18.6443 -0.349641 14.9457 0.857871L12.9927 0.877984C9.30037 -0.267864 5.34572 -0.240937 1.66916 0.955086C1.47485 1.0177 1.30541 1.14078 1.18538 1.30651C1.06535 1.47224 1.00095 1.67203 1.0015 1.87695V3.21785C0.804302 3.32733 0.622445 3.4626 0.460688 3.62012C0.318327 3.75338 0.204163 3.91409 0.125011 4.09263C0.0458597 4.27118 0.00334333 4.46391 0 4.65931L0 20.9143C0.0452291 21.2077 0.186125 21.4777 0.400599 21.682C0.626577 21.883 0.913704 22.0012 1.21515 22.0172H11.7042C11.9469 21.7374 12.224 21.4896 12.5287 21.2797C13.2522 20.7958 14.0967 20.5262 14.9657 20.502C14.978 20.5009 14.9898 20.4967 15.0001 20.4897C15.0103 20.4828 15.0187 20.4734 15.0243 20.4623C15.03 20.4513 15.0328 20.439 15.0324 20.4266C15.0321 20.4142 15.0287 20.4021 15.0224 20.3914Z" fill="#213245"/>
<path d="M29 26.0001H15.867C15.2042 25.7703 14.5273 25.5833 13.8407 25.4403C13.5069 25.3766 13.2131 25.3196 12.9193 25.276C12.7881 25.2568 12.6636 25.2052 12.5571 25.1258C12.4506 25.0464 12.3654 24.9417 12.3091 24.8211C12.2529 24.7004 12.2273 24.5677 12.2348 24.4347C12.2422 24.3017 12.2824 24.1727 12.3518 24.0591C13.0528 22.9093 14.9123 22.4601 17.159 22.8825C17.4628 22.9495 18.1104 23.1507 18.304 22.906C18.4976 22.6613 18.2106 22.0143 18.077 21.7293C16.6682 18.4777 15.2584 15.2271 13.8474 11.9777C13.7328 11.7308 13.6856 11.4577 13.7105 11.1865C13.7391 10.9785 13.8113 10.7788 13.9223 10.6009C14.0334 10.4229 14.1808 10.2706 14.3548 10.154C14.5114 10.048 14.6872 9.97397 14.8722 9.93614C15.1719 9.88732 15.4792 9.93819 15.7474 10.081C16.0156 10.2238 16.2299 10.4508 16.3578 10.7273L18.9316 15.8227C18.9445 15.848 18.9641 15.8693 18.9882 15.8842C19.0124 15.8991 19.0402 15.907 19.0685 15.907C19.0968 15.907 19.1246 15.8991 19.1488 15.8842C19.1729 15.8693 19.1925 15.848 19.2054 15.8227C19.3329 15.5703 19.5048 15.3432 19.7128 15.1522C19.9685 14.9198 20.2715 14.7459 20.6008 14.6427C21.0123 14.5611 21.4381 14.5935 21.8326 14.7365C21.9684 14.7881 22.0991 14.852 22.2232 14.9276C22.3406 14.9933 22.4785 15.0114 22.6088 14.9784C22.7391 14.9454 22.8519 14.8637 22.9243 14.75C22.999 14.6466 23.0828 14.5501 23.1746 14.4617C23.4432 14.1918 23.7914 14.0163 24.1674 13.9613C24.5434 13.9064 24.927 13.9749 25.2611 14.1566C25.3404 14.1973 25.4164 14.2444 25.4881 14.2974C25.5355 14.3314 25.5892 14.3556 25.6461 14.3686C25.7029 14.3817 25.7617 14.3832 25.8192 14.3733C25.8766 14.3633 25.9315 14.342 25.9807 14.3105C26.0299 14.2791 26.0724 14.2382 26.1057 14.1901C26.128 14.155 26.1525 14.1215 26.1791 14.0896C26.3653 13.8642 26.6217 13.7083 26.9069 13.6471C27.1252 13.6404 27.3427 13.6756 27.5478 13.751C28.7596 14.1935 28.9833 15.9165 29 16.0372V26.0001Z" fill="#213245"/>
</g>
<defs>
<clipPath id="clip0_116_955">
<rect width="29" height="26" fill="white"/>
</clipPath>
</defs>
</svg>
