<svg width="30" height="30" viewBox="0 0 30 30" fill="none" xmlns="http://www.w3.org/2000/svg">
<path d="M12.5238 23C17.7705 23 22.0238 18.7467 22.0238 13.5C22.0238 8.25329 17.7705 4 12.5238 4C7.2771 4 3.0238 8.25329 3.0238 13.5C3.0238 18.7467 7.2771 23 12.5238 23Z" stroke="#213245" stroke-width="3" stroke-miterlimit="10"/>
<path d="M19.6934 19L25.7279 25.0346C25.9503 25.257 26.0756 25.5582 26.0763 25.8719C26.077 26.1857 25.953 26.4864 25.7316 26.7078C25.5102 26.9292 25.2095 27.0532 24.8958 27.0525C24.582 27.0518 24.2808 26.9265 24.0584 26.7041L18.0238 20.6696L19.6934 19Z" fill="#213245"/>
</svg>
