<svg width="22" height="26" viewBox="0 0 22 26" fill="none" xmlns="http://www.w3.org/2000/svg">
<g clip-path="url(#clip0_150_1363)">
<path d="M12.1998 1.10194C12.1998 0.493357 11.7074 0 11.0999 0C10.4924 0 10 0.493357 10 1.10194V2.14897C10 2.75756 10.4924 3.25092 11.0999 3.25092C11.7074 3.25092 12.1998 2.75756 12.1998 2.14897V1.10194Z" fill="#213245"/>
<path d="M18.6985 1.83777H4.11453C3.49899 1.83777 3 2.33686 3 2.95252C3 3.56819 3.49899 4.06728 4.11453 4.06728H18.6985C19.314 4.06728 19.813 3.56819 19.813 2.95252C19.813 2.33686 19.314 1.83777 18.6985 1.83777Z" fill="#213245"/>
<path d="M1 8H20.7144L19.1395 24.0166C19.067 24.7332 18.7316 25.3973 18.1983 25.8803C17.6649 26.3632 16.9716 26.6306 16.2526 26.6305H5.40697C4.68626 26.6319 3.99104 26.3634 3.45766 25.8778C2.92428 25.3922 2.59123 24.7245 2.5238 24.0056L1 8Z" fill="#213245"/>
<path d="M20.807 2.91046H1.11453C0.498993 2.91046 0 3.40955 0 4.02522C0 4.64088 0.498993 5.13997 1.11453 5.13997H20.807C21.4226 5.13997 21.9216 4.64088 21.9216 4.02522C21.9216 3.40955 21.4226 2.91046 20.807 2.91046Z" fill="#213245"/>
</g>
<defs>
<clipPath id="clip0_150_1363">
<rect width="21.9216" height="26" fill="white"/>
</clipPath>
</defs>
</svg>
